<svg version="1.0" xmlns="http://www.w3.org/2000/svg" width="700" height="700" preserveAspectRatio="xMidYMid meet" style=""><rect id="backgroundrect" width="100%" height="100%" x="0" y="0" fill="none" stroke="none"/>
<metadata>
Created by potrace 1.16, written by Peter Selinger 2001-2019
</metadata>

<g class="currentLayer" style=""><title>Layer 1</title>
<path d="M159.90000238269567,149.39999179542065 c-8.700000129640102,3.1000000461935997 -13.90000020712614,7.900000117719173 -17.80000026524067,16.600000247359276 c-2.0000000298023224,4.400000065565109 -2.1000000312924385,6.100000090897083 -2.1000000312924385,127.8000019043684 c0,109.00000162422657 0.20000000298023224,123.70000184327364 1.5000000223517418,127.00000189244747 c2.600000038743019,6.200000092387199 6.600000098347664,11.10000016540289 11.700000174343586,14.400000214576721 l4.800000071525574,3.1000000461935997 l0,6.900000102818012 l0,6.800000101327896 l42.00000062584877,0 l42.00000062584877,0 l0,-6.000000089406967 l0,-6.000000089406967 l6.500000096857548,0 l6.500000096857548,0 l0,6.000000089406967 l0,6.000000089406967 l43.00000064074993,0 l43.00000064074993,0 l0,-6.000000089406967 l0,-6.000000089406967 l9.00000013411045,0 l9.00000013411045,0 l0,6.500000096857548 l0,6.500000096857548 l24.50000036507845,0 l24.50000036507845,0 l0,-6.500000096857548 l0,-6.500000096857548 l57.80000086128712,0 c65.30000097304583,0 63.40000094473362,0.20000000298023224 72.10000107437372,-7.600000113248825 c5.100000075995922,-4.6000000685453415 8.50000012665987,-11.10000016540289 9.700000144541264,-18.30000027269125 l0.7000000104308128,-4.100000061094761 l5.800000086426735,0 l5.900000087916851,0 l0,-43.00000064074993 l0,-43.00000064074993 l-6.000000089406967,0 l-6.000000089406967,0 l0,-15.000000223517418 l0,-15.000000223517418 l6.000000089406967,0 l6.000000089406967,0 l0,-36.500000543892384 l0,-36.500000543892384 l-6.000000089406967,0 l-6.000000089406967,0 l0,-25.300000376999378 l0,-25.400000378489494 l-3.1000000461935997,-6.100000090897083 c-3.200000047683716,-6.500000096857548 -6.600000098347664,-9.900000147521496 -13.300000198185444,-13.500000201165676 l-4.100000061094761,-2.2000000327825546 l-182.00000271201134,-0.20000000298023224 c-147.1000021919608,-0.20000000298023224 -182.70000272244215,0 -185.60000276565552,1.1000000163912773 zm366.1000054553151,13.600000202655792 c4.700000070035458,2.400000035762787 7.600000113248825,6.3000000938773155 8.900000132620335,12.10000018030405 c0.6000000089406967,2.400000035762787 1.1000000163912773,13.700000204145908 1.1000000163912773,25.100000374019146 l0,20.800000309944153 l-34.00000050663948,0 l-34.00000050663948,0 l0,36.500000543892384 l0,36.500000543892384 l34.00000050663948,0 l34.00000050663948,0 l0,15.000000223517418 l0,15.000000223517418 l-40.00000059604645,0 l-40.00000059604645,0 l0,43.00000064074993 l0,43.00000064074993 l39.50000058859587,0 c30.90000046044588,0 39.50000058859587,0.30000000447034836 39.50000058859587,1.2000000178813934 c-0.10000000149011612,2.400000035762787 -3.7000000551342964,9.300000138580799 -6.100000090897083,11.500000171363354 c-1.3000000193715096,1.2000000178813934 -3.7000000551342964,2.600000038743019 -5.200000077486038,3.200000047683716 c-1.9000000283122063,0.7000000104308128 -21.700000323355198,1.1000000163912773 -59.30000088363886,1.1000000163912773 l-56.40000084042549,0 l0,-24.00000035762787 l0,-24.00000035762787 l-24.50000036507845,0 l-24.50000036507845,0 l0,24.00000035762787 l0,24.00000035762787 l-9.00000013411045,0 l-9.00000013411045,0 l0,-24.00000035762787 l0,-24.00000035762787 l-43.00000064074993,0 l-43.00000064074993,0 l0,24.00000035762787 l0,24.00000035762787 l-12.500000186264515,0 l-12.500000186264515,0 l0,6.000000089406967 l0,6.000000089406967 l-6.000000089406967,0 l-6.000000089406967,0 l0,-6.000000089406967 l0,-6.000000089406967 l-6.000000089406967,0 l-6.000000089406967,0 l0,6.000000089406967 l0,6.000000089406967 l-6.000000089406967,0 l-6.000000089406967,0 l0,-6.000000089406967 l0,-6.000000089406967 l-6.000000089406967,0 l-6.000000089406967,0 l0,6.000000089406967 l0,6.000000089406967 l-6.000000089406967,0 l-6.000000089406967,0 l0,-6.000000089406967 c0,-5.4000000804662704 -0.20000000298023224,-6.000000089406967 -2.0000000298023224,-6.000000089406967 c-3.300000049173832,0 -9.600000143051147,-3.7000000551342964 -11.900000177323818,-6.800000101327896 c-1.1000000163912773,-1.600000023841858 -2.500000037252903,-4.90000007301569 -3.0000000447034836,-7.300000108778477 c-1.4000000208616257,-6.000000089406967 -1.4000000208616257,-231.80000345408916 0,-237.80000354349613 c1.3000000193715096,-5.700000084936619 4.200000062584877,-9.700000144541264 8.700000129640102,-12.10000018030405 c3.6000000536441803,-1.9000000283122063 7.600000113248825,-1.9000000283122063 182.00000271201134,-2.0000000298023224 c175.70000261813402,0 178.30000265687704,0 182.20000271499157,2.0000000298023224 zm22.000000327825546,95.00000141561031 l0,24.00000035762787 l-33.5000004991889,0 l-33.5000004991889,0 l0,-24.00000035762787 l0,-24.00000035762787 l33.5000004991889,0 l33.5000004991889,0 l0,24.00000035762787 zm0,109.00000162422657 l0,30.000000447034836 l-39.50000058859587,0 l-39.50000058859587,0 l0,-30.000000447034836 l0,-30.000000447034836 l39.50000058859587,0 l39.50000058859587,0 l0,30.000000447034836 zm-220.00000327825546,48.50000072270632 l0,23.500000350177288 l-30.000000447034836,0 l-30.000000447034836,0 l0,-23.500000350177288 l0,-23.500000350177288 l30.000000447034836,0 l30.000000447034836,0 l0,23.500000350177288 zm67.0000009983778,0.5000000074505806 l0,24.00000035762787 l-12.000000178813934,0 l-12.000000178813934,0 l0,-24.00000035762787 l0,-24.00000035762787 l12.000000178813934,0 l12.000000178813934,0 l0,24.00000035762787 z" id="svg_2" class="selected" stroke="#ffffff" stroke-opacity="1" fill="#353535" fill-opacity="1" opacity="1"/>
<path d="M217.00000323355198,178.49999222904444 l0,6.500000096857548 l6.500000096857548,0 l6.500000096857548,0 l0,-6.500000096857548 l0,-6.500000096857548 l-6.500000096857548,0 l-6.500000096857548,0 l0,6.500000096857548 z" id="svg_3" class="" fill="#353535" fill-opacity="1" stroke="#ffffff" stroke-opacity="1"/>
<path d="M241.00000359117985,178.49999222904444 l0,6.500000096857548 l6.500000096857548,0 l6.500000096857548,0 l0,-6.500000096857548 l0,-6.500000096857548 l-6.500000096857548,0 l-6.500000096857548,0 l0,6.500000096857548 z" id="svg_4" class="" fill="#353535" fill-opacity="1" stroke="#ffffff" stroke-opacity="1"/>
<path d="M265.0000039488077,178.49999222904444 l0,6.500000096857548 l6.500000096857548,0 l6.500000096857548,0 l0,-6.500000096857548 l0,-6.500000096857548 l-6.500000096857548,0 l-6.500000096857548,0 l0,6.500000096857548 z" id="svg_5" class="" fill="#353535" fill-opacity="1" stroke="#ffffff" stroke-opacity="1"/>
<path d="M289.0000043064356,178.49999222904444 l0,6.500000096857548 l6.500000096857548,0 l6.500000096857548,0 l0,-6.500000096857548 l0,-6.500000096857548 l-6.500000096857548,0 l-6.500000096857548,0 l0,6.500000096857548 z" id="svg_6" class="" fill="#353535" fill-opacity="1" stroke="#ffffff" stroke-opacity="1"/>
<path d="M313.00000466406345,178.49999222904444 l0,6.500000096857548 l6.500000096857548,0 l6.500000096857548,0 l0,-6.500000096857548 l0,-6.500000096857548 l-6.500000096857548,0 l-6.500000096857548,0 l0,6.500000096857548 z" id="svg_7" class="" fill="#353535" fill-opacity="1" stroke="#ffffff" stroke-opacity="1"/>
<path d="M337.0000050216913,178.49999222904444 l0,6.500000096857548 l6.500000096857548,0 l6.500000096857548,0 l0,-6.500000096857548 l0,-6.500000096857548 l-6.500000096857548,0 l-6.500000096857548,0 l0,6.500000096857548 z" id="svg_8" class="" fill="#353535" fill-opacity="1" stroke="#ffffff" stroke-opacity="1"/>
<path d="M361.0000053793192,178.49999222904444 l0,6.500000096857548 l6.500000096857548,0 l6.500000096857548,0 l0,-6.500000096857548 l0,-6.500000096857548 l-6.500000096857548,0 l-6.500000096857548,0 l0,6.500000096857548 z" id="svg_9" class="" fill="#353535" fill-opacity="1" stroke="#ffffff" stroke-opacity="1"/>
<path d="M385.00000573694706,178.49999222904444 l0,6.500000096857548 l6.500000096857548,0 l6.500000096857548,0 l0,-6.500000096857548 l0,-6.500000096857548 l-6.500000096857548,0 l-6.500000096857548,0 l0,6.500000096857548 z" id="svg_10" class="" fill="#353535" fill-opacity="1" stroke="#ffffff" stroke-opacity="1"/>
<path d="M177.30000264197588,179.4999922439456 c-12.000000178813934,5.200000077486038 -7.900000117719173,23.500000350177288 5.200000077486038,23.500000350177288 c7.800000116229057,0 13.300000198185444,-6.3000000938773155 12.200000181794167,-13.90000020712614 c-0.6000000089406967,-4.90000007301569 -2.8000000417232513,-7.800000116229057 -7.400000110268593,-9.700000144541264 c-4.000000059604645,-1.700000025331974 -5.900000087916851,-1.700000025331974 -10.000000149011612,0.10000000149011612 z" id="svg_11" class="" fill="#353535" fill-opacity="1" stroke="#ffffff" stroke-opacity="1"/>
<path d="M427.4000063687563,179.39999224245548 c-6.400000095367432,2.9000000432133675 -9.100000135600567,10.000000149011612 -6.400000095367432,17.00000025331974 c1.4000000208616257,3.7000000551342964 6.70000009983778,6.600000098347664 11.900000177323818,6.600000098347664 c8.400000125169754,0 14.300000213086605,-9.600000143051147 10.600000157952309,-17.30000025779009 c-3.0000000447034836,-6.3000000938773155 -10.000000149011612,-9.100000135600567 -16.100000239908695,-6.3000000938773155 z" id="svg_12" class="" fill="#353535" fill-opacity="1" stroke="#ffffff" stroke-opacity="1"/>
<path d="M217.00000323355198,202.4999925866723 l0,6.500000096857548 l6.500000096857548,0 l6.500000096857548,0 l0,-6.500000096857548 l0,-6.500000096857548 l-6.500000096857548,0 l-6.500000096857548,0 l0,6.500000096857548 z" id="svg_13" class="" fill="#353535" fill-opacity="1" stroke="#ffffff" stroke-opacity="1"/>
<path d="M241.00000359117985,202.4999925866723 l0,6.500000096857548 l6.500000096857548,0 l6.500000096857548,0 l0,-6.500000096857548 l0,-6.500000096857548 l-6.500000096857548,0 l-6.500000096857548,0 l0,6.500000096857548 z" id="svg_14" class="" fill="#353535" fill-opacity="1" stroke="#ffffff" stroke-opacity="1"/>
<path d="M265.0000039488077,202.4999925866723 l0,6.500000096857548 l6.500000096857548,0 l6.500000096857548,0 l0,-6.500000096857548 l0,-6.500000096857548 l-6.500000096857548,0 l-6.500000096857548,0 l0,6.500000096857548 z" id="svg_15" class="" fill="#353535" fill-opacity="1" stroke="#ffffff" stroke-opacity="1"/>
<path d="M289.0000043064356,202.4999925866723 l0,6.500000096857548 l6.500000096857548,0 l6.500000096857548,0 l0,-6.500000096857548 l0,-6.500000096857548 l-6.500000096857548,0 l-6.500000096857548,0 l0,6.500000096857548 z" id="svg_16" class="" fill="#353535" fill-opacity="1" stroke="#ffffff" stroke-opacity="1"/>
<path d="M313.00000466406345,202.4999925866723 l0,6.500000096857548 l6.500000096857548,0 l6.500000096857548,0 l0,-6.500000096857548 l0,-6.500000096857548 l-6.500000096857548,0 l-6.500000096857548,0 l0,6.500000096857548 z" id="svg_17" class="" fill="#353535" fill-opacity="1" stroke="#ffffff" stroke-opacity="1"/>
<path d="M337.0000050216913,202.4999925866723 l0,6.500000096857548 l6.500000096857548,0 l6.500000096857548,0 l0,-6.500000096857548 l0,-6.500000096857548 l-6.500000096857548,0 l-6.500000096857548,0 l0,6.500000096857548 z" id="svg_18" class="" fill="#353535" fill-opacity="1" stroke="#ffffff" stroke-opacity="1"/>
<path d="M361.0000053793192,202.4999925866723 l0,6.500000096857548 l6.500000096857548,0 l6.500000096857548,0 l0,-6.500000096857548 l0,-6.500000096857548 l-6.500000096857548,0 l-6.500000096857548,0 l0,6.500000096857548 z" id="svg_19" class="" fill="#353535" fill-opacity="1" stroke="#ffffff" stroke-opacity="1"/>
<path d="M385.00000573694706,202.4999925866723 l0,6.500000096857548 l6.500000096857548,0 l6.500000096857548,0 l0,-6.500000096857548 l0,-6.500000096857548 l-6.500000096857548,0 l-6.500000096857548,0 l0,6.500000096857548 z" id="svg_20" class="" fill="#353535" fill-opacity="1" stroke="#ffffff" stroke-opacity="1"/>
<path d="M327.0000048726797,236.69999309629202 c-2.8000000417232513,0.30000000447034836 -5.300000078976154,2.2000000327825546 -12.700000189244747,9.600000143051147 l-9.300000138580799,9.200000137090683 l0,30.200000450015068 l0,30.300000451505184 l39.50000058859587,0 l39.50000058859587,0 l0,-40.00000059604645 l0,-40.00000059604645 l-26.700000397861004,0.20000000298023224 c-14.800000220537186,0 -28.400000423192978,0.30000000447034836 -30.300000451505184,0.5000000074505806 zm44.00000065565109,39.300000585615635 l0,27.000000402331352 l-27.000000402331352,0 l-27.000000402331352,0 l0,-20.700000308454037 l0,-20.700000308454037 l6.200000092387199,-6.3000000938773155 l6.200000092387199,-6.3000000938773155 l20.800000309944153,0 l20.800000309944153,0 l0,27.000000402331352 z" id="svg_21" class="" fill="#353535" fill-opacity="1" stroke="#ffffff" stroke-opacity="1"/>
<path d="M170.0000025331974,245.99999323487282 l0,9.00000013411045 l12.000000178813934,0 l12.000000178813934,0 l0,-9.00000013411045 l0,-9.00000013411045 l-12.000000178813934,0 l-12.000000178813934,0 l0,9.00000013411045 z" id="svg_22" class="" fill="#353535" fill-opacity="1" stroke="#ffffff" stroke-opacity="1"/>
<path d="M213.00000317394733,243.49999319761992 l0,6.500000096857548 l6.000000089406967,0 l6.000000089406967,0 l0,5.500000081956387 l0,5.500000081956387 l-6.000000089406967,0 l-6.000000089406967,0 l0,7.000000104308128 l0,7.000000104308128 l6.000000089406967,0 l6.000000089406967,0 l0,5.500000081956387 l0,5.500000081956387 l-6.000000089406967,0 l-6.000000089406967,0 l0,6.000000089406967 l0,6.000000089406967 l12.500000186264515,0 l12.500000186264515,0 l0,-30.500000454485416 l0,-30.500000454485416 l-12.500000186264515,0 l-12.500000186264515,0 l0,6.500000096857548 z" id="svg_23" class="" fill="#353535" fill-opacity="1" stroke="#ffffff" stroke-opacity="1"/>
<path d="M170.0000025331974,321.99999436736107 l0,43.00000064074993 l12.000000178813934,0 l12.000000178813934,0 l0,-6.500000096857548 l0,-6.500000096857548 l-6.000000089406967,0 l-6.000000089406967,0 l0,-6.000000089406967 l0,-6.000000089406967 l6.000000089406967,0 l6.000000089406967,0 l0,-6.500000096857548 l0,-6.500000096857548 l-6.000000089406967,0 l-6.000000089406967,0 l0,-6.000000089406967 l0,-6.000000089406967 l6.000000089406967,0 l6.000000089406967,0 l0,-6.000000089406967 l0,-6.000000089406967 l-6.000000089406967,0 l-6.000000089406967,0 l0,-6.000000089406967 l0,-6.000000089406967 l6.000000089406967,0 l6.000000089406967,0 l0,-6.000000089406967 l0,-6.000000089406967 l-12.000000178813934,0 l-12.000000178813934,0 l0,43.00000064074993 z" id="svg_24" class="" fill="#353535" fill-opacity="1" stroke="#ffffff" stroke-opacity="1"/>
<path d="M213,341.96341466903687 l0,24.5 l24.5,0 l24.5,0 l0,-24.5 l0,-24.5 l-24.5,0 l-24.5,0 l0,24.5 zm36,0 l0,11.5 l-11.5,0 l-11.5,0 l0,-11.5 l0,-11.5 l11.5,0 l11.5,0 l0,11.5 z" id="svg_25" class="" fill="#353535" fill-opacity="1" stroke="#ffffff" stroke-opacity="1"/>
<path d="M177.30000264197588,386.49999532848597 c-3.8000000566244125,1.600000023841858 -7.300000108778477,6.800000101327896 -7.300000108778477,10.800000160932541 c0,7.400000110268593 5.200000077486038,12.700000189244747 12.500000186264515,12.700000189244747 c8.00000011920929,0 13.100000195205212,-5.700000084936619 12.200000181794167,-13.700000204145908 c-0.5000000074505806,-5.000000074505806 -2.8000000417232513,-8.00000011920929 -7.400000110268593,-9.900000147521496 c-4.000000059604645,-1.700000025331974 -5.900000087916851,-1.700000025331974 -10.000000149011612,0.10000000149011612 z" id="svg_26" class="" fill="#353535" fill-opacity="1" stroke="#ffffff" stroke-opacity="1"/>
<path d="M427.4000063687563,385.89999531954527 c-1.1000000163912773,0.5000000074505806 -3.300000049173832,2.3000000342726707 -4.700000070035458,4.100000061094761 c-2.1000000312924385,2.500000037252903 -2.7000000402331352,4.200000062584877 -2.7000000402331352,8.200000122189522 c0,4.400000065565109 0.4000000059604645,5.4000000804662704 3.400000050663948,8.400000125169754 c3.0000000447034836,3.0000000447034836 4.000000059604645,3.400000050663948 8.600000128149986,3.400000050663948 c4.6000000685453415,0 5.600000083446503,-0.4000000059604645 8.50000012665987,-3.300000049173832 c8.00000011920929,-8.00000011920929 3.9000000581145287,-20.10000029951334 -7.200000107288361,-21.300000317394733 c-2.1000000312924385,-0.20000000298023224 -4.700000070035458,0 -5.900000087916851,0.5000000074505806 z" id="svg_27" class="" stroke="#ffffff" stroke-opacity="1" fill="#353535" fill-opacity="1"/><path d="M427.3999938964844,385.8999938964844 c-1.100000023841858,0.5 -3.299999952316284,2.299999952316284 -4.700000286102295,4.099999904632568 c-2.1000001430511475,2.5 -2.700000047683716,4.200000286102295 -2.700000047683716,8.199999809265137 c0,4.400000095367432 0.4000000059604645,5.400000095367432 3.4000000953674316,8.40000057220459 c3,3 4,3.4000000953674316 8.600000381469727,3.4000000953674316 c4.599999904632568,0 5.599999904632568,-0.4000000059604645 8.5,-3.299999952316284 c8,-8 3.9000000953674316,-20.100000381469727 -7.200000286102295,-21.30000114440918 c-2.1000001430511475,-0.20000000298023224 -4.700000286102295,0 -5.900000095367432,0.5 z" class="" id="svg_47" fill="#353535" fill-opacity="1" stroke="#ffffff" stroke-opacity="1"/>

















</g></svg>